<svg width="216" height="77" viewBox="0 0 216 77" fill="none" xmlns="http://www.w3.org/2000/svg">
<path d="M72.2134 29.33C72.3517 29.4684 72.7668 29.7451 73.1818 29.7451C73.8735 29.7451 74.7035 29.1917 74.7035 28.2233V25.4565C74.7035 21.583 71.66 18.2628 67.5098 18.2628H62.3913V13.1443C62.3913 11.8992 61.8379 10.7925 60.7312 9.82411C59.7628 9.13241 58.5178 8.71739 57.2727 8.85573L13.834 18.5395C10.5138 19.0929 8.02372 21.998 8.02372 25.4565V60.0415C8.02372 63.915 11.0672 67.2351 15.2174 67.2351H67.7865C71.66 67.2351 74.9802 64.1917 74.9802 60.0415V56.7213C74.9802 56.3063 74.8419 56.0296 74.5652 55.7529C74.4268 55.6146 74.0118 55.3379 73.5968 55.3379C72.9051 55.3379 72.0751 55.8913 72.0751 56.8597V60.1798C72.0751 62.5316 70 64.33 67.9249 64.33H15.079C12.7273 64.33 10.9289 62.5316 10.9289 60.1798V25.4565C10.9289 23.2431 12.5889 21.583 14.5257 21.3063C14.664 21.3063 14.9407 21.3063 15.2174 21.3063H67.7865C70.1383 21.3063 71.9367 23.1047 71.9367 25.4565V28.3617C71.9367 28.7767 72.0751 29.0534 72.2134 29.33ZM27.668 18.2628L57.9644 11.7609C58.3794 11.7609 58.9328 11.7609 59.0711 12.1759C59.4861 12.3142 59.6245 12.8676 59.6245 13.1443V18.2628H27.668Z" fill="white"/>
<path d="M35.1383 53.2628C32.3716 52.5711 29.6048 51.7411 27.253 50.911C26.838 50.7727 26.4229 50.6343 26.0079 50.6343C21.166 50.496 17.0158 46.8992 17.0158 40.2589C17.0158 33.6185 21.0277 29.4684 26.5613 29.4684C32.0949 29.4684 35.6917 33.7569 35.6917 39.8438C35.6917 45.1007 33.2016 48.4209 29.8814 49.666V49.8043C31.9565 50.3577 34.17 50.7727 35.83 51.0494L35.1383 53.2628ZM32.9249 39.9822C32.9249 35.832 30.8498 31.6818 26.4229 31.6818C21.9961 31.6818 19.7826 35.832 19.7826 40.2589C19.7826 44.5474 22.1344 48.5592 26.2846 48.5592C30.5731 48.4209 32.9249 44.6857 32.9249 39.9822Z" fill="white"/>
<path d="M52.0158 46.3458C52.0158 47.8676 52.0158 49.251 52.1541 50.3577H49.8023L49.664 48.0059C48.9723 49.251 47.4506 50.7727 44.8221 50.7727C42.4703 50.7727 39.7035 49.5277 39.7035 44.2708V35.6937H42.332V43.8557C42.332 46.6225 43.162 48.5593 45.6521 48.5593C47.4506 48.5593 48.6956 47.3142 49.249 46.0692C49.3873 45.6541 49.5257 45.2391 49.5257 44.6858V35.6937H52.1541V46.3458H52.0158Z" fill="white"/>
<path d="M65.0197 50.3577L64.743 48.5593H64.6047C63.7747 49.666 62.2529 50.7727 60.0395 50.7727C56.996 50.7727 55.4743 48.6976 55.4743 46.4842C55.4743 42.8873 58.6561 40.9506 64.328 40.9506V40.6739C64.328 39.4288 64.0513 37.2154 61.0079 37.2154C59.6245 37.2154 58.2411 37.6304 57.1344 38.3221L56.7193 36.5237C57.9644 35.6936 59.7628 35.2786 61.5612 35.2786C66.1264 35.2786 67.0948 38.3221 67.0948 41.3656V46.8992C67.0948 48.1442 67.0948 49.3893 67.3715 50.496H65.0197V50.3577ZM64.6047 42.749C61.6996 42.749 58.3794 43.164 58.3794 46.0691C58.3794 47.8676 59.4861 48.5593 60.8695 48.5593C62.8063 48.5593 64.0513 47.3142 64.4664 46.0691C64.6047 45.7925 64.6047 45.5158 64.6047 45.2391V42.749Z" fill="white"/>
<path d="M72.0751 39.5672C72.0751 38.0454 72.0751 36.8004 71.9367 35.5553H74.2885L74.4268 38.0454C75.1185 36.662 76.917 35.2786 79.2687 35.2786C81.3438 35.2786 84.5257 36.5237 84.5257 41.5039V50.3577H81.8972V41.9189C81.8972 39.5672 81.0672 37.6304 78.4387 37.6304C76.6403 37.6304 75.2569 38.8755 74.8419 40.3972C74.7035 40.6739 74.7035 41.2272 74.7035 41.6423V50.496H72.0751V39.5672Z" fill="white"/>
<path d="M92.5493 31.4051V35.6937H96.4228V37.7688H92.5493V45.6541C92.5493 47.4525 93.1027 48.5593 94.6244 48.5593C95.3161 48.5593 95.8695 48.4209 96.1462 48.4209L96.2845 50.496C95.7312 50.7727 94.9011 50.911 93.9327 50.911C92.6877 50.911 91.7193 50.496 91.0276 49.8043C90.3359 48.9743 90.0592 47.7292 90.0592 45.9308V37.9071H87.7074V35.832H89.9209V32.2352L92.5493 31.4051Z" fill="white"/>
<path d="M112.194 46.3458C112.194 47.8676 112.194 49.251 112.332 50.3577H109.98L109.842 48.0059C109.15 49.251 107.629 50.7727 105 50.7727C102.648 50.7727 99.8815 49.5277 99.8815 44.2708V35.6937H102.372V43.8557C102.372 46.6225 103.202 48.5593 105.692 48.5593C107.49 48.5593 108.735 47.3142 109.289 46.0692C109.427 45.6541 109.565 45.2391 109.565 44.6858V35.6937H112.194V46.3458Z" fill="white"/>
<path d="M117.174 39.5672C117.174 38.0454 117.174 36.8004 117.036 35.5553H119.387L119.526 37.9071H119.664C120.494 36.5237 121.877 35.1403 124.229 35.1403C126.304 35.1403 127.826 36.3853 128.379 38.0454C128.794 37.2154 129.348 36.5237 130.04 36.1087C130.87 35.417 131.838 35.1403 133.36 35.1403C135.296 35.1403 138.202 36.3853 138.202 41.5039V50.2193H135.573V41.9189C135.573 39.1521 134.605 37.3537 132.391 37.3537C130.87 37.3537 129.625 38.4604 129.21 39.8438C129.071 40.2588 128.933 40.6739 128.933 41.2272V50.3577H126.304V41.5039C126.304 39.1521 125.336 37.4921 123.261 37.4921C121.601 37.4921 120.356 38.8755 119.941 40.1205C119.802 40.5355 119.664 40.9505 119.664 41.3656V50.2193H117.036V39.5672H117.174Z" fill="white"/>
<path d="M146.364 43.8557L144.289 50.3577H141.522L148.439 29.8834H151.621L158.676 50.3577H155.909L153.696 43.8557H146.364ZM153.142 41.7806L151.067 35.832C150.652 34.4486 150.237 33.3419 149.96 32.0968C149.684 33.3419 149.269 34.587 148.992 35.832L146.917 41.7806H153.142Z" fill="white"/>
<path d="M164.763 29.7451V50.2193H162.135V29.7451H164.763Z" fill="white"/>
<path d="M192.064 48.1321V50.3182H178.357V48.4053L185.218 40.7684C186.061 39.8288 186.713 39.033 187.174 38.381C187.643 37.7194 187.969 37.1298 188.152 36.612C188.343 36.0847 188.439 35.5477 188.439 35.0012C188.439 34.3109 188.295 33.6877 188.008 33.1315C187.73 32.5658 187.317 32.1152 186.771 31.7796C186.224 31.444 185.563 31.2763 184.786 31.2763C183.856 31.2763 183.079 31.4584 182.456 31.8228C181.843 32.1775 181.382 32.6761 181.076 33.3185C180.769 33.9609 180.615 34.6992 180.615 35.5334H177.955C177.955 34.354 178.214 33.2754 178.731 32.2974C179.249 31.3194 180.016 30.5428 181.032 29.9675C182.049 29.3826 183.3 29.0902 184.786 29.0902C186.109 29.0902 187.241 29.3251 188.18 29.7949C189.12 30.2551 189.839 30.9071 190.338 31.7509C190.846 32.585 191.1 33.563 191.1 34.6848C191.1 35.2984 190.994 35.9217 190.783 36.5545C190.582 37.1777 190.299 37.8009 189.935 38.4242C189.58 39.0474 189.163 39.661 188.684 40.2651C188.214 40.8691 187.711 41.4636 187.174 42.0484L181.565 48.1321H192.064Z" fill="white"/>
<path d="M195.242 48.9087C195.242 48.4581 195.381 48.0793 195.659 47.7725C195.947 47.4561 196.359 47.2979 196.896 47.2979C197.433 47.2979 197.84 47.4561 198.118 47.7725C198.406 48.0793 198.55 48.4581 198.55 48.9087C198.55 49.3498 198.406 49.7237 198.118 50.0305C197.84 50.3373 197.433 50.4907 196.896 50.4907C196.359 50.4907 195.947 50.3373 195.659 50.0305C195.381 49.7237 195.242 49.3498 195.242 48.9087Z" fill="white"/>
<path d="M215.823 38.1797V41.3725C215.823 43.0888 215.669 44.5365 215.363 45.7159C215.056 46.8952 214.615 47.8444 214.039 48.5635C213.464 49.2826 212.769 49.8052 211.954 50.1312C211.149 50.4476 210.238 50.6058 209.221 50.6058C208.416 50.6058 207.673 50.5051 206.992 50.3038C206.311 50.1024 205.698 49.7812 205.151 49.3402C204.614 48.8895 204.154 48.3047 203.771 47.5856C203.387 46.8665 203.095 45.9939 202.893 44.968C202.692 43.9421 202.591 42.7436 202.591 41.3725V38.1797C202.591 36.4634 202.745 35.0252 203.051 33.865C203.368 32.7049 203.814 31.7748 204.389 31.0749C204.964 30.3654 205.655 29.8572 206.46 29.5504C207.275 29.2436 208.186 29.0902 209.193 29.0902C210.008 29.0902 210.755 29.1908 211.436 29.3922C212.127 29.584 212.74 29.8956 213.277 30.327C213.814 30.7489 214.269 31.3146 214.643 32.0241C215.027 32.724 215.319 33.5822 215.521 34.5985C215.722 35.6149 215.823 36.8086 215.823 38.1797ZM213.148 41.804V37.7338C213.148 36.7942 213.09 35.9696 212.975 35.2601C212.87 34.541 212.711 33.9274 212.5 33.4192C212.29 32.911 212.021 32.4987 211.695 32.1823C211.379 31.8659 211.01 31.6358 210.588 31.492C210.175 31.3386 209.71 31.2619 209.193 31.2619C208.56 31.2619 207.999 31.3817 207.51 31.6214C207.021 31.8515 206.609 32.2207 206.273 32.7288C205.947 33.237 205.698 33.9034 205.525 34.728C205.353 35.5525 205.266 36.5545 205.266 37.7338V41.804C205.266 42.7436 205.319 43.5729 205.424 44.2921C205.54 45.0112 205.707 45.6344 205.928 46.1617C206.148 46.6795 206.417 47.1062 206.733 47.4417C207.05 47.7773 207.414 48.0266 207.826 48.1896C208.248 48.343 208.713 48.4197 209.221 48.4197C209.873 48.4197 210.444 48.2951 210.933 48.0458C211.422 47.7965 211.829 47.4082 212.155 46.8808C212.491 46.3439 212.74 45.6584 212.903 44.8242C213.066 43.9804 213.148 42.9737 213.148 41.804Z" fill="white"/>
</svg>
