<svg width="32" height="32" viewBox="0 0 32 32" fill="none" xmlns="http://www.w3.org/2000/svg">
<g clip-path="url(#clip0_25_9)">
<rect width="32" height="32" rx="11" fill="#8000FF"/>
<path d="M5 23.7402V8.25981H10.4442C12.8733 8.25981 14.7952 8.94542 16.2098 10.3166C17.6387 11.6734 18.3532 13.5571 18.3532 15.9675C18.3532 18.3924 17.6387 20.2977 16.2098 21.6834C14.7952 23.0546 12.8733 23.7402 10.4442 23.7402H5ZM8.75089 20.4926H10.2941C11.6087 20.4926 12.6304 20.1028 13.3591 19.3234C14.1022 18.544 14.4737 17.4253 14.4737 15.9675C14.4737 14.5241 14.1022 13.4199 13.3591 12.6549C12.6161 11.8899 11.5944 11.5074 10.2941 11.5074H8.75089V20.4926Z" fill="white"/>
<path d="M16.0045 21.7916L17.9764 18.912C18.4622 19.3451 19.041 19.7203 19.7125 20.0379C20.3841 20.3554 21.0343 20.5142 21.663 20.5142C22.1631 20.5142 22.5489 20.4132 22.8204 20.2111C23.1062 20.009 23.2491 19.7492 23.2491 19.4317C23.2491 19.0997 23.0776 18.7966 22.7347 18.5223C22.406 18.2336 21.9917 17.9955 21.4915 17.8078C20.9914 17.6202 20.4484 17.382 19.8626 17.0934C19.2767 16.7903 18.7337 16.4727 18.2336 16.1407C17.7335 15.8088 17.312 15.3541 16.969 14.7767C16.6404 14.1849 16.4761 13.5065 16.4761 12.7415C16.4761 11.327 16.9905 10.1867 18.0193 9.3207C19.0624 8.44023 20.3984 8 22.0274 8C23.9278 8 25.5282 8.58457 26.8285 9.75372L25.2424 12.8498C24.7995 12.4601 24.2708 12.1353 23.6563 11.8755C23.0419 11.6157 22.4418 11.4858 21.8559 11.4858C21.3129 11.4858 20.9057 11.5868 20.6342 11.7889C20.3627 11.991 20.227 12.258 20.227 12.59C20.227 12.922 20.3913 13.2251 20.7199 13.4993C21.0629 13.7736 21.4844 14.0045 21.9845 14.1922C22.4846 14.3654 23.0276 14.5963 23.6135 14.885C24.1993 15.1592 24.7423 15.4623 25.2424 15.7943C25.7426 16.1119 26.1569 16.5665 26.4856 17.1583C26.8285 17.7357 27 18.4069 27 19.1719C27 20.5431 26.5142 21.6906 25.5425 22.6143C24.5851 23.5381 23.2562 24 21.5558 24C20.527 24 19.5196 23.8124 18.5337 23.4371C17.562 23.0618 16.719 22.5133 16.0045 21.7916Z" fill="white"/>
</g>
<defs>
<clipPath id="clip0_25_9">
<rect width="32" height="32" fill="white"/>
</clipPath>
</defs>
</svg>
