<svg width="54" height="54" viewBox="0 0 54 54" fill="none" xmlns="http://www.w3.org/2000/svg">
<path d="M44.6398 34.3842H31.3161C30.7025 34.3842 30.2059 34.8818 30.2059 35.4967V36.6092H23.5441V35.4967C23.5441 34.8818 23.0475 34.3842 22.4339 34.3842H9.11025C8.4965 34.3842 8 34.8818 8 35.4967C8 39.7902 11.487 43.2842 15.7721 43.2842H37.978C42.2631 43.2842 45.7501 39.7902 45.7501 35.4967C45.75 34.8818 45.2534 34.3842 44.6398 34.3842ZM26.875 24.3499C28.3778 22.9484 29.4317 21.1428 29.9131 19.1394C28.9502 18.4419 28.1132 17.5739 27.4519 16.5842H26.2983C25.6369 17.5739 24.7997 18.4419 23.837 19.1394C24.3183 21.1428 25.3722 22.9484 26.875 24.3499ZM26.3741 32.0397C26.5324 32.1201 26.7038 32.1592 26.875 32.1592C27.0462 32.1592 27.2176 32.1201 27.3759 32.0397C32.0969 29.6517 35.4277 25.3169 36.5098 20.1498C36.7483 19.0134 36.8676 17.8368 36.8676 16.6504V15.4717C36.8676 14.8568 36.371 14.3592 35.7574 14.3592C33.9206 14.3592 32.4265 12.8621 32.4265 11.0217C32.4265 10.4068 31.9299 9.90918 31.3162 9.90918H22.4339C21.8201 9.90918 21.3236 10.4067 21.3236 11.0217C21.3236 12.8621 19.8295 14.3592 17.9928 14.3592C17.3791 14.3592 16.8825 14.8567 16.8825 15.4717V16.6504C16.8825 17.8368 17.0018 19.0134 17.2404 20.1498C18.3223 25.3169 21.6531 29.6517 26.3741 32.0397ZM22.0217 17.6782C23.1364 16.9992 24.0689 16.0442 24.7216 14.9143C24.919 14.5709 25.2855 14.3592 25.6824 14.3592H28.0677C28.4646 14.3592 28.8311 14.5711 29.0285 14.9143C29.6812 16.0442 30.6138 16.9992 31.7284 17.6782C32.1165 17.9151 32.3225 18.3658 32.2466 18.8157C31.7154 21.9403 30.0499 24.7346 27.5583 26.6858C27.3588 26.8444 27.1159 26.9227 26.8751 26.9227C26.6344 26.9227 26.3915 26.8444 26.192 26.6858C23.7004 24.7346 22.0349 21.9403 21.5036 18.8157C21.4276 18.3659 21.6336 17.9151 22.0217 17.6782ZM15.0672 20.6062C14.9435 20.0174 14.8551 19.4159 14.7879 18.8093H13.5514C11.7146 18.8093 10.2205 20.3064 10.2205 22.1468V32.1593H22.4266C18.6799 29.3411 16.0471 25.2884 15.0672 20.6062ZM31.3225 32.1592H43.5294V22.1467C43.5294 20.3063 42.0353 18.8092 40.1985 18.8092H38.962C38.8948 19.4162 38.8064 20.0184 38.6826 20.6083C37.703 25.2882 35.0707 29.3399 31.3225 32.1592Z" fill="white"/>
</svg>
