<svg width="54" height="54" viewBox="0 0 54 54" fill="none" xmlns="http://www.w3.org/2000/svg">
<path d="M37.978 19.1029H36.8677V21.3235H37.978C38.5895 21.3235 39.0882 20.8247 39.0882 20.2132C39.0882 19.6016 38.5895 19.1029 37.978 19.1029ZM40.1985 8H13.5515C10.4895 8 8 10.4895 8 13.5515V22.4339C8 25.4959 10.4895 27.9854 13.5515 27.9854H22.9883L23.5443 27.2438V19.3069C23.5443 16.6548 25.5371 14.6619 27.9854 14.6619C30.4336 14.6619 32.4265 16.6548 32.4265 19.103V26.4935L35.4299 27.2395C36.0912 27.4029 36.6993 27.6705 37.2749 27.9855H40.1985C43.2605 27.9855 45.75 25.496 45.75 22.434V13.5516C45.75 10.4895 43.2605 8 40.1985 8ZM18.9945 16.0886C18.4936 16.4377 17.7996 16.3163 17.4505 15.811C16.8303 14.9219 16.0886 14.5207 15.4381 14.7116C14.974 14.8591 14.6618 15.2841 14.6618 15.772C14.6618 16.3836 15.1605 16.8822 15.772 16.8822C17.6087 16.8822 19.1029 18.3764 19.1029 20.2131C19.1029 22.1035 17.5696 23.5505 15.7525 23.5505C14.473 23.5505 13.2219 22.8068 12.272 21.4405C11.9207 20.9374 12.0443 20.2456 12.5496 19.8965C13.0505 19.5496 13.7445 19.6689 14.0936 20.1741C14.7139 21.0633 15.462 21.4687 16.106 21.2736C16.5701 21.1261 16.8824 20.7011 16.8824 20.2132C16.8824 19.6016 16.3836 19.1029 15.7721 19.1029C13.9354 19.1029 12.4412 17.6087 12.4412 15.772C12.4412 14.3082 13.3781 13.031 14.7746 12.5929C16.3945 12.0832 18.0709 12.8162 19.2721 14.5446C19.6234 15.0477 19.4997 15.7395 18.9945 16.0886ZM41.3089 20.2132C41.3089 22.05 39.8148 23.5441 37.978 23.5441H35.7574C35.1436 23.5441 34.6471 23.0475 34.6471 22.4339V13.5515C34.6471 12.9378 35.1437 12.4412 35.7574 12.4412H37.978C39.8148 12.4412 41.3089 13.9354 41.3089 15.7721C41.3089 16.6284 40.9753 17.4021 40.4425 17.9928C40.9751 18.5834 41.3089 19.357 41.3089 20.2132ZM37.978 14.6618H36.8677V16.8824H37.978C38.5895 16.8824 39.0882 16.3836 39.0882 15.7721C39.0882 15.1605 38.5895 14.6618 37.978 14.6618ZM34.8942 29.3949L30.2059 28.2282V19.103C30.2059 17.8765 29.2117 16.8824 27.9852 16.8824C26.7587 16.8824 25.7646 17.8765 25.7646 19.103V35.7574C25.7646 36.3711 25.268 36.8677 24.6544 36.8677C24.0408 36.8677 23.5441 36.3711 23.5441 35.7574V30.9454L19.7752 35.972C19.3415 36.5401 19.103 37.2514 19.103 37.9779C19.103 38.7044 19.3415 39.4156 19.7687 39.9751L23.104 44.4206C23.735 45.2534 24.7281 45.75 25.7647 45.75H35.7574C37.5941 45.75 39.0882 44.2559 39.0882 42.4191V34.7794C39.0882 32.2182 37.3621 30.0042 34.8942 29.3949Z" fill="white"/>
</svg>
