<svg width="54" height="54" viewBox="0 0 54 54" fill="none" xmlns="http://www.w3.org/2000/svg">
<path d="M42.4191 19.1029H34.647V36.8676H42.4191C44.2559 36.8676 45.75 35.3735 45.75 33.5368V22.4338C45.75 20.5971 44.2559 19.1029 42.4191 19.1029ZM42.4191 25.7647H37.978C37.3643 25.7647 36.8677 25.2681 36.8677 24.6545C36.8677 24.0407 37.3644 23.5443 37.978 23.5443H42.4191C43.0329 23.5443 43.5294 24.0409 43.5294 24.6545C43.5294 25.2681 43.0329 25.7647 42.4191 25.7647ZM29.0956 8H11.3309C9.49413 8 8 9.49413 8 11.3309V42.4191C8 44.2559 9.49413 45.75 11.3309 45.75H29.0956C30.9324 45.75 32.4265 44.2559 32.4265 42.4191V11.3309C32.4265 9.49413 30.9324 8 29.0956 8ZM19.103 12.4411H21.3236C21.9374 12.4411 22.4339 12.9377 22.4339 13.5514C22.4339 14.1651 21.9373 14.6616 21.3236 14.6616H19.103C18.4893 14.6616 17.9928 14.165 17.9928 13.5514C17.9926 12.9377 18.4893 12.4411 19.103 12.4411ZM21.3235 41.3089H19.1029C18.4891 41.3089 17.9926 40.8122 17.9926 40.1986C17.9926 39.5849 18.4893 39.0884 19.1029 39.0884H21.3235C21.9373 39.0884 22.4338 39.585 22.4338 40.1986C22.4339 40.8122 21.9373 41.3089 21.3235 41.3089ZM23.4357 24.9721C22.9347 25.3201 22.2409 25.1999 21.8918 24.6945C21.2715 23.8044 20.5299 23.3966 19.8794 23.595C19.4153 23.7402 19.103 24.1664 19.103 24.6544C19.103 25.267 19.6017 25.7646 20.2132 25.7646C22.05 25.7646 23.5441 27.2588 23.5441 29.0955C23.5441 30.516 22.6517 31.7456 21.3235 32.2184V33.5368C21.3235 34.1505 20.8269 34.647 20.2132 34.647C19.5995 34.647 19.103 34.1504 19.103 33.5368V32.2326C18.2205 31.9354 17.389 31.2971 16.7132 30.3251C16.362 29.822 16.4855 29.1302 16.9886 28.78C17.4939 28.4276 18.1856 28.5522 18.5347 29.0565C19.1528 29.9435 19.8879 30.363 20.5471 30.1549C21.0112 30.0096 21.3235 29.5835 21.3235 29.0955C21.3235 28.4829 20.8247 27.9852 20.2132 27.9852C18.3765 27.9852 16.8824 26.4911 16.8824 24.6544C16.8824 23.2339 17.7748 22.0042 19.103 21.5325V20.2132C19.103 19.5995 19.5996 19.103 20.2132 19.103C20.827 19.103 21.3235 19.5996 21.3235 20.2132V21.5408C22.2052 21.8384 23.0377 22.454 23.7132 23.4259C24.0646 23.929 23.941 24.6219 23.4357 24.9721Z" fill="white"/>
</svg>
