<svg width="54" height="54" viewBox="0 0 54 54" fill="none" xmlns="http://www.w3.org/2000/svg">
<path d="M33.4781 27.3125H20.5969C18.624 27.3125 17.0188 28.9171 17.0188 30.8906C17.0188 32.8642 18.624 34.4688 20.5969 34.4688H33.4781C35.4517 34.4688 37.0562 32.8642 37.0562 30.8906C37.0562 28.9171 35.4517 27.3125 33.4781 27.3125ZM22.0281 33.0375C20.8443 33.0375 19.8812 32.0745 19.8812 30.8906C19.8812 29.7068 20.8443 28.7437 22.0281 28.7437C23.212 28.7437 24.175 29.7068 24.175 30.8906C24.175 32.0745 23.212 33.0375 22.0281 33.0375ZM32.0469 33.0375C30.863 33.0375 29.9 32.0745 29.9 30.8906C29.9 29.7068 30.863 28.7437 32.0469 28.7437C33.2307 28.7437 34.1938 29.7068 34.1938 30.8906C34.1938 32.0745 33.2307 33.0375 32.0469 33.0375ZM45.6437 28.8756V17.1619C46.4749 16.8655 47.075 16.0786 47.075 15.1469C47.075 13.963 46.112 13 44.9281 13C43.7443 13 42.7812 13.963 42.7812 15.1469C42.7812 16.0786 43.3813 16.8655 44.2125 17.1619V28.8756C43.9192 28.9802 43.6533 29.141 43.4343 29.3538C41.2524 22.3734 34.7277 17.2937 27.0375 17.2937C19.3479 17.2937 12.8228 22.3735 10.6408 29.3538C10.4218 29.141 10.1558 28.9802 9.8625 28.8756V17.1619C10.6937 16.8655 11.2937 16.0786 11.2937 15.1469C11.2937 13.963 10.3307 13 9.14687 13C7.96302 13 7 13.963 7 15.1469C7 16.0786 7.60005 16.8655 8.43125 17.1619V28.8756C7.60005 29.172 7 29.9589 7 30.8906V36.6156C7 37.7995 7.96302 38.7625 9.14687 38.7625C9.82066 38.7625 10.4155 38.4443 10.8094 37.9572C12.038 40.1343 14.3458 41.625 17.0188 41.625H37.0562C39.7292 41.625 42.037 40.1343 43.2656 37.9572C43.6595 38.4443 44.2543 38.7625 44.9281 38.7625C46.112 38.7625 47.075 37.7995 47.075 36.6156V30.8906C47.075 29.9589 46.4749 29.172 45.6437 28.8756ZM33.4781 35.9H20.5969C17.835 35.9 15.5875 33.6525 15.5875 30.8906C15.5875 28.1288 17.835 25.8812 20.5969 25.8812H33.4781C36.24 25.8812 38.4875 28.1288 38.4875 30.8906C38.4875 33.6525 36.24 35.9 33.4781 35.9Z" fill="url(#paint0_linear_60_873)"/>
<defs>
<linearGradient id="paint0_linear_60_873" x1="7" y1="13" x2="47" y2="42" gradientUnits="userSpaceOnUse">
<stop stop-color="#A540D9"/>
<stop offset="1" stop-color="#CB1FA6"/>
</linearGradient>
</defs>
</svg>
