<svg width="54" height="54" viewBox="0 0 54 54" fill="none" xmlns="http://www.w3.org/2000/svg">
<path d="M32.4569 14.6618H22.4183C21.6873 15.7493 20.7503 16.6861 19.6635 17.4158V26.1539C19.6635 31.47 22.6981 36.3221 27.4375 38.6534C32.177 36.3222 35.2115 31.4701 35.2115 26.1539V17.4158C34.125 16.6861 33.1879 15.7493 32.4569 14.6618ZM30.6609 23.8619C30.162 24.2099 29.4679 24.0906 29.1165 23.5842C28.4961 22.6951 27.75 22.2875 27.1035 22.4848C26.6394 22.63 26.327 23.0561 26.327 23.5441C26.327 24.1567 26.8259 24.6544 27.4376 24.6544C29.2749 24.6544 30.7694 26.1485 30.7694 27.9852C30.7694 29.4057 29.8768 30.6354 28.5483 31.1081V32.4265C28.5483 33.0402 28.0515 33.5368 27.4376 33.5368C26.8238 33.5368 26.327 33.0401 26.327 32.4265V31.1224C25.4444 30.8251 24.6126 30.1869 23.9366 29.2149C23.5853 28.7118 23.7089 28.02 24.2121 27.6698C24.7175 27.3174 25.4095 27.4431 25.7588 27.9463C26.377 28.8331 27.1145 29.2539 27.7718 29.0446C28.2359 28.8994 28.5483 28.4732 28.5483 27.9852C28.5483 27.3726 28.0494 26.875 27.4376 26.875C25.6004 26.875 24.1059 25.3809 24.1059 23.5441C24.1059 22.1236 24.9985 20.894 26.327 20.4223V19.103C26.327 18.4893 26.8238 17.9928 27.4376 17.9928C28.0515 17.9928 28.5483 18.4894 28.5483 19.103V20.4304C29.4303 20.7284 30.2629 21.3444 30.9386 22.3156C31.2899 22.8187 31.1663 23.5116 30.6609 23.8619ZM40.7645 12.4411C38.9272 12.4411 37.4328 10.947 37.4328 9.11025C37.4328 8.4965 36.936 8 36.3221 8H18.553C17.9391 8 17.4424 8.49663 17.4424 9.11025C17.4424 10.947 15.9479 12.4411 14.1106 12.4411C13.4968 12.4411 13 12.9377 13 13.5514V26.1539C13 35.033 18.6614 42.8853 27.0861 45.6925C27.201 45.7305 27.3182 45.75 27.4375 45.75C27.5568 45.75 27.674 45.7305 27.7889 45.6925C36.2138 42.8854 41.8751 35.033 41.8751 26.154V13.5515C41.8751 12.9378 41.3784 12.4411 40.7645 12.4411ZM37.4328 26.154C37.4328 32.5121 33.6868 38.2979 27.8909 40.8936C27.7478 40.9576 27.5915 40.9901 27.4375 40.9901C27.2835 40.9901 27.1274 40.9576 26.9841 40.8936C21.1884 38.2979 17.4423 32.5121 17.4423 26.154V16.8011C17.4423 16.4054 17.6526 16.04 17.9954 15.8405C19.1733 15.1574 20.158 14.1729 20.8413 12.9942C21.0408 12.6516 21.4053 12.4412 21.8021 12.4412H33.0728C33.4697 12.4412 33.8341 12.6516 34.0336 12.9942C34.7169 14.1729 35.7016 15.1574 36.8795 15.8405C37.2223 16.04 37.4326 16.4054 37.4326 16.8011V26.154H37.4328Z" fill="white"/>
</svg>
