<svg width="54" height="54" viewBox="0 0 54 54" fill="none" xmlns="http://www.w3.org/2000/svg">
<path d="M27.3791 8C16.6932 8 8 16.6932 8 27.3783C8 38.0642 16.6932 46.7574 27.3791 46.7574C38.0642 46.7574 46.7574 38.0642 46.7574 27.3783C46.7574 16.6932 38.0642 8 27.3791 8ZM38.8844 23.7289L25.0015 37.6118C24.4188 38.1946 23.6544 38.4864 22.8909 38.4864C22.1273 38.4864 21.3638 38.1954 20.781 37.6118L15.4757 32.3065C14.3102 31.1418 14.3102 29.2523 15.4757 28.0868C16.6404 26.9213 18.5299 26.9213 19.6954 28.0868L22.8909 31.2822L34.6647 19.5092C35.8294 18.3437 37.7189 18.3437 38.8844 19.5092C40.0499 20.6739 40.0499 22.5634 38.8844 23.7289Z" fill="url(#paint0_linear_60_883)"/>
<defs>
<linearGradient id="paint0_linear_60_883" x1="7.75743" y1="7.75732" x2="46.7574" y2="46.7573" gradientUnits="userSpaceOnUse">
<stop stop-color="#A53ED7"/>
<stop offset="1" stop-color="#CA20A8"/>
</linearGradient>
</defs>
</svg>
