<svg width="54" height="54" viewBox="0 0 54 54" fill="none" xmlns="http://www.w3.org/2000/svg">
<path d="M16.298 37.7918C14.9755 36.4694 13.9286 34.9143 13.1571 33.1265C12.3857 31.3388 12 29.4286 12 27.3959C12 25.3633 12.3857 23.4531 13.1571 21.6653C13.9286 19.8776 14.9755 18.3224 16.298 17L17.6204 18.3224C16.4204 19.4735 15.4898 20.8388 14.8286 22.4184C14.1673 23.998 13.8367 25.6571 13.8367 27.3959C13.8367 29.1347 14.1673 30.7939 14.8286 32.3735C15.4898 33.9531 16.4204 35.3184 17.6204 36.4694L16.298 37.7918ZM19.2367 34.8531C18.3061 33.9224 17.5408 32.802 16.9408 31.4918C16.3408 30.1816 16.0408 28.8163 16.0408 27.3959C16.0408 25.9755 16.3408 24.6102 16.9408 23.3C17.5408 21.9898 18.3061 20.8694 19.2367 19.9388L20.5224 21.2245C19.6898 21.9592 19.0408 22.8898 18.5755 24.0163C18.1102 25.1429 17.8776 26.2694 17.8776 27.3959C17.8776 28.5224 18.1102 29.649 18.5755 30.7755C19.0408 31.902 19.6898 32.8327 20.5224 33.5673L19.2367 34.8531ZM25.298 34.0082C25.298 33.4939 25.1143 32.9673 24.7469 32.4286C24.3796 31.8898 23.9816 31.3388 23.5531 30.7755C23.1245 30.2122 22.7265 29.6184 22.3592 28.9939C21.9918 28.3694 21.8082 27.7143 21.8082 27.0286C21.8082 25.6816 22.2857 24.5306 23.2408 23.5755C24.1959 22.6204 25.3469 22.1429 26.6939 22.1429C28.0408 22.1429 29.1918 22.6204 30.1469 23.5755C31.102 24.5306 31.5796 25.6816 31.5796 27.0286C31.5796 27.7143 31.3959 28.3694 31.0286 28.9939C30.6612 29.6184 30.2633 30.2122 29.8347 30.7755C29.4061 31.3388 29.0082 31.8898 28.6408 32.4286C28.2735 32.9673 28.0898 33.4939 28.0898 34.0082H25.298ZM25.2245 37.3143V35.4775H28.1633V37.3143H25.2245ZM34.151 34.8531L32.8653 33.5673C33.698 32.8327 34.3469 31.902 34.8122 30.7755C35.2776 29.649 35.5102 28.5224 35.5102 27.3959C35.5102 26.2694 35.2776 25.1429 34.8122 24.0163C34.3469 22.8898 33.698 21.9592 32.8653 21.2245L34.151 19.9388C35.0816 20.8694 35.8469 21.9898 36.4469 23.3C37.0469 24.6102 37.3469 25.9755 37.3469 27.3959C37.3469 28.8163 37.0469 30.1816 36.4469 31.4918C35.8469 32.802 35.0816 33.9224 34.151 34.8531ZM37.0898 37.7918L35.7673 36.4694C36.9673 35.3184 37.898 33.9531 38.5592 32.3735C39.2204 30.7939 39.551 29.1347 39.551 27.3959C39.551 25.6571 39.2204 23.998 38.5592 22.4184C37.898 20.8388 36.9673 19.4735 35.7673 18.3224L37.0898 17C38.4122 18.3224 39.4592 19.8776 40.2306 21.6653C41.002 23.4531 41.3878 25.3633 41.3878 27.3959C41.3878 29.4286 41.002 31.3388 40.2306 33.1265C39.4592 34.9143 38.4122 36.4694 37.0898 37.7918Z" fill="white"/>
</svg>
