<svg width="54" height="54" viewBox="0 0 54 54" fill="none" xmlns="http://www.w3.org/2000/svg">
<path d="M46.4768 32.3518L45.3002 31.5707L28.9449 42.429C28.3666 42.8128 27.6943 43.0157 27.0003 43.0157C26.3064 43.0157 25.6342 42.8128 25.056 42.4292L8.70054 31.5707L7.5239 32.3519C6.82561 32.8155 6.82561 33.841 7.5239 34.3045L26.3521 46.8046C26.745 47.0654 27.2557 47.0654 27.6485 46.8046L46.4767 34.3045C47.175 33.8409 47.175 32.8154 46.4768 32.3518Z" fill="url(#paint0_linear_60_878)"/>
<path d="M46.4767 26.0237L45.3001 25.2425L28.9448 36.1008C28.3667 36.4847 27.6943 36.6876 27.0003 36.6876C26.3063 36.6876 25.6339 36.4847 25.0557 36.1008L8.70047 25.2426L7.5239 26.0237C6.82561 26.4873 6.82561 27.5127 7.5239 27.9763L26.3521 40.4763C26.745 40.7371 27.2557 40.7371 27.6485 40.4763L46.4767 27.9763C47.1749 27.5127 47.1749 26.4873 46.4767 26.0237Z" fill="url(#paint1_linear_60_878)"/>
<path d="M7.52419 21.6483L26.3524 34.1483C26.7452 34.4091 27.256 34.4091 27.6488 34.1483L46.477 21.6483C47.1753 21.1847 47.1753 20.1593 46.477 19.6957L27.6488 7.19559C27.256 6.9348 26.7452 6.9348 26.3524 7.19559L7.52419 19.6957C6.8259 20.1592 6.8259 21.1847 7.52419 21.6483ZM33.0359 24.8351C32.6779 25.3743 31.9507 25.5212 31.4114 25.1632L27.0006 22.2348L22.5897 25.1632C22.0504 25.5212 21.3232 25.3743 20.9652 24.8351C20.6072 24.2958 20.7541 23.5686 21.2933 23.2106L26.3524 19.8519C26.7452 19.5911 27.256 19.5911 27.6488 19.8519L32.7078 23.2106C33.247 23.5686 33.3939 24.2958 33.0359 24.8351ZM16.5275 20.0464L26.3524 13.5238C26.7451 13.263 27.256 13.263 27.6487 13.5238L37.4735 20.0464C38.0127 20.4044 38.1596 21.1317 37.8016 21.6709C37.4437 22.2101 36.7164 22.357 36.1772 21.999L27.0006 15.9067L17.8239 21.999C17.2846 22.357 16.5574 22.2101 16.1994 21.6709C15.8414 21.1318 15.9884 20.4044 16.5275 20.0464Z" fill="url(#paint2_linear_60_878)"/>
<defs>
<linearGradient id="paint0_linear_60_878" x1="6.99998" y1="7" x2="47" y2="47" gradientUnits="userSpaceOnUse">
<stop stop-color="#A63ED7"/>
<stop offset="1" stop-color="#C622AC"/>
</linearGradient>
<linearGradient id="paint1_linear_60_878" x1="6.99998" y1="7" x2="47" y2="47" gradientUnits="userSpaceOnUse">
<stop stop-color="#A63ED7"/>
<stop offset="1" stop-color="#C622AC"/>
</linearGradient>
<linearGradient id="paint2_linear_60_878" x1="6.99998" y1="7" x2="47" y2="47" gradientUnits="userSpaceOnUse">
<stop stop-color="#A63ED7"/>
<stop offset="1" stop-color="#C622AC"/>
</linearGradient>
</defs>
</svg>
